<svg width="342" height="77" viewBox="0 0 342 77" fill="none" xmlns="http://www.w3.org/2000/svg">
<path d="M334.565 17.8811H185.87V22.7578H334.565V17.8811Z" fill="#F7B149"/>
<path d="M334.565 63.3967V17.8811H328.989V63.3967H334.565Z" fill="#F7B149"/>
<path d="M334.565 60.1456H22.3044V65.0222H334.565V60.1456Z" fill="#F7B149"/>
<path d="M48.1904 54.7556V52.9846C48.8744 52.7484 49.53 52.5385 50.1569 52.3549C50.784 52.1449 51.411 51.9875 52.0379 51.8826L52.5082 31.8113L48.1904 30.8274V28.8596H62.2552V30.6306C61.6282 30.8405 60.9727 31.0503 60.2887 31.2603C59.6047 31.4439 58.8922 31.6013 58.1512 31.7326V51.9613L62.2552 52.7484V54.7556H48.1904ZM30.1499 54.7556V52.9452C30.8339 52.7091 31.5038 52.4991 32.1592 52.3155C32.8432 52.1319 33.5272 51.9875 34.2112 51.8826L34.6814 31.8113L30.1499 30.8274V28.8596H44.2147V30.6306C43.6162 30.8405 42.9892 31.0503 42.3336 31.2603C41.6783 31.4439 41.0227 31.6013 40.3672 31.7326V51.9613L44.2147 52.7484V54.7556H30.1499ZM37.4602 43.4211V40.0759H55.2869V43.4211H37.4602ZM79.513 55.1885C75.8365 55.1885 73.0006 54.4275 71.0057 52.9058C69.0106 51.3841 68.0132 49.2458 68.0132 46.4909L68.3552 31.8113L63.8237 30.8274V28.8596H77.9312V30.6306C77.3896 30.8667 76.8197 31.0767 76.2212 31.2603C75.6227 31.4177 74.896 31.5751 74.041 31.7326V46.7664C74.041 48.2881 74.5824 49.4687 75.6655 50.3084C76.777 51.148 78.3301 51.5677 80.3252 51.5677C81.6932 51.5677 82.8759 51.3841 83.8735 51.0168C84.8995 50.6232 85.7686 50.0067 86.4812 49.1671L86.8232 31.8113L82.6337 30.8274V28.8596H95.1167V30.6306C94.5182 30.8667 93.877 31.0767 93.193 31.2603C92.509 31.4439 91.7822 31.6013 91.0127 31.7326L91.0555 46.058C91.0555 48.9703 90.0436 51.2267 88.0202 52.8271C85.9966 54.4013 83.1608 55.1885 79.513 55.1885ZM116.361 28.8596H128.973V30.6306C128.317 30.8667 127.662 31.0767 127.006 31.2603C126.379 31.4439 125.695 31.6013 124.954 31.7326L124.911 54.7556H118.67L103.793 33.1493L105.118 32.8345V51.9613L109.992 52.7484V54.7556H96.9529V52.9452C97.6083 52.7091 98.2495 52.4991 98.8767 52.3155C99.532 52.1319 100.202 51.9875 100.886 51.8826L101.356 31.8113L96.8674 30.8274V28.8596H107.726L122.432 50.1903L121.192 50.5052L120.765 31.6538L116.361 30.8274V28.8596ZM146.118 55.1491C141.387 55.1491 137.725 54.0078 135.131 51.7252C132.566 49.4426 131.284 46.1892 131.284 41.965C131.284 39.1314 131.911 36.7045 133.165 34.6842C134.419 32.6377 136.214 31.0767 138.551 30.0009C140.888 28.9251 143.696 28.3873 146.973 28.3873C148.227 28.3873 149.567 28.466 150.992 28.6235C152.417 28.7809 153.87 29.0302 155.352 29.3712L153.471 33.4248C152.075 33.0575 150.65 32.782 149.196 32.5984C147.743 32.3884 146.275 32.2835 144.793 32.2835C143.453 32.2835 142.1 32.3884 140.732 32.5984C139.392 32.8083 138.067 33.1232 136.756 33.5429L140.945 31.7719C139.805 33.3461 138.936 34.9597 138.338 36.6126C137.768 38.2656 137.483 40.0497 137.483 41.965C137.483 45.1134 138.252 47.501 139.791 49.1277C141.359 50.7545 143.61 51.5677 146.546 51.5677C147.572 51.5677 148.669 51.4629 149.837 51.2529C151.006 51.043 152.274 50.7281 153.642 50.3084L155.352 53.9291C153.614 54.3488 151.975 54.6507 150.436 54.8343C148.897 55.0442 147.458 55.1491 146.118 55.1491ZM149.453 53.9291L149.624 44.3657L144.579 43.3818V41.3747H158.858V43.185C158.345 43.395 157.789 43.5917 157.19 43.7754C156.62 43.959 156.008 44.1296 155.352 44.287V53.9291H149.453ZM152.958 37.5572L149.624 29.3319L155.352 29.3712V37.5572H152.958ZM184.581 45.7038H186.847V54.7556H161.368V52.9452C162.052 52.7091 162.722 52.4991 163.377 52.3155C164.061 52.1319 164.745 51.9875 165.429 51.8826L165.9 31.8113L161.368 30.8274V28.8596H186.42V37.1243H184.154L182.444 32.2048H169.063L171.585 29.8828V39.8792H177.699L179.109 36.7701H181.161V46.4122H179.109L177.656 43.185H171.585V53.6929L169.063 51.4103H182.743L184.581 45.7038ZM216.949 51.8826L220.796 52.7484V54.7556H211.306L210.023 47.7109C209.797 46.3466 209.382 45.4151 208.784 44.9167C208.185 44.3919 207.217 44.1296 205.877 44.1296H198.78V40.8237H207.886C209.055 40.2202 209.91 39.5511 210.451 38.8165C210.994 38.082 211.263 37.2423 211.263 36.2978C211.263 34.9859 210.836 33.9758 209.981 33.2674C209.126 32.559 207.943 32.2048 206.432 32.2048H201.602V51.9613L205.706 52.7484V54.7556H191.384V52.9452C191.812 52.7352 192.368 52.5516 193.052 52.3942C193.736 52.2106 194.548 52.04 195.488 51.8826L195.916 31.8113L191.384 30.8274V28.8596H207.672C210.637 28.8596 212.988 29.4499 214.726 30.6306C216.493 31.7851 217.376 33.3461 217.376 35.3139C217.376 36.9143 216.793 38.3575 215.624 39.643C214.456 40.9024 212.93 41.8076 211.049 42.3585C212.503 42.6996 213.629 43.3163 214.427 44.2083C215.254 45.1003 215.824 46.3466 216.137 47.947L216.949 51.8826Z" fill="white"/>
<path d="M246.576 54.7555V52.9845C247.26 52.7484 247.917 52.5385 248.543 52.3549C249.171 52.1449 249.798 51.9875 250.424 51.8826L250.894 31.8113L246.576 30.8274V28.8596H260.641V30.6306C260.015 30.8405 259.359 31.0503 258.675 31.2603C257.991 31.4439 257.279 31.6013 256.537 31.7325V51.9613L260.641 52.7484V54.7555H246.576ZM228.536 54.7555V52.9452C229.22 52.7091 229.891 52.4991 230.545 52.3155C231.229 52.1319 231.913 51.9875 232.597 51.8826L233.067 31.8113L228.536 30.8274V28.8596H242.601V30.6306C242.002 30.8405 241.376 31.0503 240.72 31.2603C240.065 31.4439 239.409 31.6013 238.753 31.7325V51.9613L242.601 52.7484V54.7555H228.536ZM235.846 43.4211V40.0759H253.673V43.4211H235.846ZM277.899 55.1885C274.223 55.1885 271.388 54.4275 269.392 52.9058C267.398 51.3841 266.399 49.2458 266.399 46.4909L266.741 31.8113L262.21 30.8274V28.8596H276.317V30.6306C275.777 30.8667 275.206 31.0767 274.607 31.2603C274.009 31.4177 273.282 31.5751 272.427 31.7325V46.7664C272.427 48.2881 272.97 49.4687 274.052 50.3084C275.163 51.148 276.717 51.5677 278.711 51.5677C280.079 51.5677 281.263 51.3841 282.26 51.0168C283.286 50.6232 284.156 50.0067 284.867 49.1671L285.209 31.8113L281.02 30.8274V28.8596H293.503V30.6306C292.904 30.8667 292.263 31.0767 291.579 31.2603C290.895 31.4439 290.168 31.6013 289.399 31.7325L289.442 46.058C289.442 48.9703 288.431 51.2267 286.406 52.8271C284.384 54.4013 281.548 55.1885 277.899 55.1885ZM314.791 41.3353C317.127 41.755 318.909 42.516 320.134 43.6179C321.389 44.6937 322.015 46.0448 322.015 47.6715C322.015 49.8755 321.047 51.6071 319.108 52.8665C317.17 54.1259 314.476 54.7555 311.029 54.7555H295.254V52.9452C295.709 52.7352 296.265 52.5516 296.921 52.3942C297.577 52.2106 298.375 52.04 299.315 51.8826L299.785 31.8113L295.254 30.8274V28.8596H311.456C314.391 28.8596 316.686 29.3974 318.339 30.4732C320.021 31.5489 320.861 33.0181 320.861 34.881C320.861 36.3765 320.32 37.7014 319.237 38.8559C318.153 39.984 316.672 40.8105 314.791 41.3353ZM305.471 53.7323L302.949 51.4497H312.439C313.579 51.1348 314.434 50.6364 315.004 49.9542C315.603 49.2719 315.902 48.4325 315.902 47.4354C315.902 46.176 315.417 45.179 314.449 44.4444C313.508 43.7098 312.226 43.3424 310.601 43.3424H304.915V40.0366H311.242C313.608 39.0395 314.791 37.6621 314.791 35.9042C314.791 34.7236 314.363 33.8184 313.508 33.1887C312.681 32.5328 311.514 32.2048 310.003 32.2048H302.949L305.471 29.8828V53.7323Z" fill="#F7B149"/>
</svg>
