<svg width="180" height="38" viewBox="0 0 180 38" fill="none" xmlns="http://www.w3.org/2000/svg">
<path d="M180 10.45H100V13.3H180V10.45Z" fill="#F7B149"/>
<path d="M180 37.05V10.45H177V37.05H180Z" fill="#F7B149"/>
<path d="M180 35H16V38H180V35Z" fill="#F7B149"/>
<path d="M14 31V38H16V31H14Z" fill="url(#paint0_linear_25_11)"/>
<path d="M22.1038 25.537C21.1225 25.4297 20.0108 25.376 18.7688 25.376C17.5268 25.376 16.5302 25.4297 15.7788 25.537C15.8095 29.125 15.9398 31.264 16.1698 31.954C15.6638 32.1073 15.2575 32.184 14.9508 32.184C14.6595 32.184 14.2532 32.1687 13.7318 32.138C13.9465 30.344 14.0538 27.791 14.0538 24.479C14.0538 21.167 13.9235 18.775 13.6628 17.303C14.0615 17.1497 14.4602 17.073 14.8588 17.073C15.2575 17.073 15.6715 17.0883 16.1008 17.119C15.8862 18.8363 15.7788 21.0443 15.7788 23.743C16.6068 23.835 17.6035 23.881 18.7688 23.881C19.9342 23.881 21.0458 23.8197 22.1038 23.697C22.0732 20.7683 21.9428 18.637 21.7128 17.303C22.1115 17.1497 22.5102 17.073 22.9088 17.073C23.3075 17.073 23.7215 17.0883 24.1508 17.119C23.9362 18.821 23.8288 21.512 23.8288 25.192C23.8288 28.872 23.9592 31.126 24.2198 31.954C23.7138 32.1073 23.3075 32.184 23.0008 32.184C22.7095 32.184 22.3032 32.1687 21.7818 32.138C21.9658 30.5893 22.0732 28.389 22.1038 25.537ZM42.4234 25.629C42.4234 26.549 42.3928 27.3233 42.3314 27.952C42.2701 28.5653 42.1321 29.171 41.9174 29.769C41.7181 30.367 41.4344 30.8423 41.0664 31.195C40.2691 31.9617 39.0271 32.345 37.3404 32.345C35.1784 32.345 33.7601 31.7393 33.0854 30.528C32.7481 29.884 32.5181 29.194 32.3954 28.458C32.2881 27.722 32.2344 26.779 32.2344 25.629C32.2344 21.5503 32.1041 18.775 31.8434 17.303C32.2421 17.1497 32.6408 17.073 33.0394 17.073C33.4381 17.073 33.8521 17.0883 34.2814 17.119C34.0668 18.821 33.9594 21.6653 33.9594 25.652C33.9594 27.3693 34.1971 28.6343 34.6724 29.447C35.1478 30.2443 36.0908 30.643 37.5014 30.643C38.9121 30.643 39.8398 30.2443 40.2844 29.447C40.7444 28.6343 40.9744 27.3693 40.9744 25.652C40.9744 21.558 40.8441 18.775 40.5834 17.303C40.9821 17.1497 41.3348 17.073 41.6414 17.073C41.9481 17.073 42.3161 17.0883 42.7454 17.119C42.5308 18.821 42.4234 21.6577 42.4234 25.629ZM50.3482 32.138C50.5629 30.344 50.6702 27.791 50.6702 24.479C50.6702 21.167 50.5399 18.775 50.2792 17.303C50.6779 17.1497 51.0152 17.073 51.2912 17.073C51.5825 17.073 51.9429 17.0883 52.3722 17.119C52.6635 18.223 53.4992 19.902 54.8792 22.156C56.2745 24.3947 57.7235 26.5643 59.2262 28.665C59.2722 27.377 59.2952 26.135 59.2952 24.939C59.2952 21.3203 59.1649 18.775 58.9042 17.303C59.3029 17.1497 59.6402 17.073 59.9162 17.073C60.2075 17.073 60.5679 17.0883 60.9972 17.119C60.7825 18.821 60.6752 21.512 60.6752 25.192C60.6752 28.872 60.8055 31.126 61.0662 31.954C60.6062 32.1073 60.2689 32.184 60.0542 32.184C59.8549 32.184 59.4945 32.1687 58.9732 32.138C58.8659 31.6627 58.4135 30.804 57.6162 29.562C56.8189 28.3047 55.8222 26.8097 54.6262 25.077C53.4455 23.3443 52.5945 22.0487 52.0732 21.19C52.0579 21.8493 52.0502 22.8613 52.0502 24.226C52.0502 28.55 52.1805 31.126 52.4412 31.954C51.9812 32.1073 51.6439 32.184 51.4292 32.184C51.2299 32.184 50.8695 32.1687 50.3482 32.138ZM73.4952 32.345C71.1338 32.345 69.5622 31.54 68.7802 29.93C68.3968 29.1327 68.1362 28.32 67.9982 27.492C67.8602 26.6487 67.7912 25.721 67.7912 24.709C67.7912 23.697 67.8448 22.8307 67.9522 22.11C68.0748 21.3893 68.2742 20.707 68.5502 20.063C68.8262 19.4037 69.1788 18.844 69.6082 18.384C70.5282 17.418 71.7855 16.935 73.3802 16.935C74.9902 16.935 76.1708 17.3183 76.9222 18.085C77.6735 18.8363 78.0492 19.81 78.0492 21.006C78.0492 21.19 78.0262 21.3817 77.9802 21.581C77.5815 21.719 77.1828 21.788 76.7842 21.788C76.3855 21.788 76.0942 21.7727 75.9102 21.742C75.9255 21.6193 75.9332 21.4583 75.9332 21.259C75.9332 20.3543 75.7185 19.6337 75.2892 19.097C74.8598 18.5603 74.2618 18.292 73.4952 18.292C72.1765 18.292 71.2105 18.8517 70.5972 19.971C69.9838 21.0903 69.6772 22.6007 69.6772 24.502C69.6772 27.4613 70.2982 29.3397 71.5402 30.137C72.0768 30.4743 72.7285 30.643 73.4952 30.643C74.7525 30.643 75.8028 30.2903 76.6462 29.585C76.6308 28.3583 76.5772 27.308 76.4852 26.434C74.7065 26.4647 73.4722 26.549 72.7822 26.687C72.7055 26.1963 72.6672 25.7977 72.6672 25.491C72.6672 25.169 72.6748 24.9083 72.6902 24.709C73.4108 24.8317 74.3768 24.893 75.5882 24.893C76.8148 24.893 77.7425 24.87 78.3712 24.824C78.2178 26.3573 78.1412 28.3583 78.1412 30.827C76.7765 31.839 75.2278 32.345 73.4952 32.345ZM87.5784 30.252C88.115 30.298 89.0427 30.321 90.3614 30.321C91.68 30.321 92.7457 30.252 93.5584 30.114C93.681 30.5127 93.7424 30.9037 93.7424 31.287C93.7424 31.655 93.7117 31.977 93.6504 32.253C93.359 32.1763 92.7457 32.0997 91.8104 32.023C90.875 31.9617 89.8247 31.931 88.6594 31.931C87.494 31.931 86.3977 31.9847 85.3704 32.092C85.585 29.976 85.6924 27.4077 85.6924 24.387C85.6924 21.3663 85.5467 18.9513 85.2554 17.142C86.2827 17.2493 87.3867 17.303 88.5674 17.303C89.748 17.303 90.7984 17.2723 91.7184 17.211C92.6537 17.1343 93.2594 17.0577 93.5354 16.981C93.5967 17.257 93.6274 17.5637 93.6274 17.901C93.6274 18.2383 93.566 18.6063 93.4434 19.005C92.6307 18.867 91.5804 18.798 90.2924 18.798C89.0044 18.798 88.092 18.821 87.5554 18.867C87.4634 19.741 87.4174 21.3203 87.4174 23.605C87.7394 23.6203 88.5137 23.628 89.7404 23.628C90.967 23.628 91.9637 23.5437 92.7304 23.375C92.807 23.8657 92.8454 24.272 92.8454 24.594C92.8454 24.9007 92.8377 25.1537 92.8224 25.353C92.1017 25.2303 91.1894 25.169 90.0854 25.169C88.9814 25.169 88.092 25.1843 87.4174 25.215C87.4174 27.2237 87.471 28.9027 87.5784 30.252ZM104.197 23.973C104.642 24.387 105.171 24.594 105.784 24.594C106.413 24.594 106.919 24.41 107.302 24.042C107.915 23.4593 108.222 22.593 108.222 21.443C108.222 19.3117 107.21 18.246 105.186 18.246C104.542 18.246 103.821 18.3993 103.024 18.706C102.917 19.9327 102.863 22.2403 102.863 25.629C102.863 29.0177 102.993 31.126 103.254 31.954C102.748 32.1073 102.28 32.184 101.851 32.184C101.422 32.184 101.077 32.1687 100.816 32.138C101.031 30.344 101.138 27.837 101.138 24.617C101.138 21.397 101.008 19.051 100.747 17.579C102.035 17.1497 103.522 16.935 105.209 16.935C108.552 16.935 110.223 18.4377 110.223 21.443C110.223 22.5777 109.939 23.5513 109.372 24.364C108.805 25.1767 107.946 25.6903 106.796 25.905C108.421 28.4963 109.771 30.4897 110.844 31.885C110.323 32.1457 109.809 32.276 109.303 32.276C108.797 32.276 108.46 32.2683 108.291 32.253C107.478 30.5357 106.282 28.435 104.703 25.951C104.396 25.905 104.067 25.8207 103.714 25.698C103.714 25.3147 103.768 24.962 103.875 24.64C103.982 24.3027 104.09 24.0803 104.197 23.973Z" fill="white"/>
<path d="M134.233 25.537C133.252 25.4297 132.14 25.376 130.898 25.376C129.656 25.376 128.66 25.4297 127.908 25.537C127.939 29.125 128.069 31.264 128.299 31.954C127.793 32.1073 127.387 32.184 127.08 32.184C126.789 32.184 126.383 32.1687 125.861 32.138C126.076 30.344 126.183 27.791 126.183 24.479C126.183 21.167 126.053 18.775 125.792 17.303C126.191 17.1497 126.59 17.073 126.988 17.073C127.387 17.073 127.801 17.0883 128.23 17.119C128.016 18.8363 127.908 21.0443 127.908 23.743C128.736 23.835 129.733 23.881 130.898 23.881C132.064 23.881 133.175 23.8197 134.233 23.697C134.203 20.7683 134.072 18.637 133.842 17.303C134.241 17.1497 134.64 17.073 135.038 17.073C135.437 17.073 135.851 17.0883 136.28 17.119C136.066 18.821 135.958 21.512 135.958 25.192C135.958 28.872 136.089 31.126 136.349 31.954C135.843 32.1073 135.437 32.184 135.13 32.184C134.839 32.184 134.433 32.1687 133.911 32.138C134.095 30.5893 134.203 28.389 134.233 25.537ZM154.553 25.629C154.553 26.549 154.522 27.3233 154.461 27.952C154.4 28.5653 154.262 29.171 154.047 29.769C153.848 30.367 153.564 30.8423 153.196 31.195C152.399 31.9617 151.157 32.345 149.47 32.345C147.308 32.345 145.89 31.7393 145.215 30.528C144.878 29.884 144.648 29.194 144.525 28.458C144.418 27.722 144.364 26.779 144.364 25.629C144.364 21.5503 144.234 18.775 143.973 17.303C144.372 17.1497 144.77 17.073 145.169 17.073C145.568 17.073 145.982 17.0883 146.411 17.119C146.196 18.821 146.089 21.6653 146.089 25.652C146.089 27.3693 146.327 28.6343 146.802 29.447C147.277 30.2443 148.22 30.643 149.631 30.643C151.042 30.643 151.969 30.2443 152.414 29.447C152.874 28.6343 153.104 27.3693 153.104 25.652C153.104 21.558 152.974 18.775 152.713 17.303C153.112 17.1497 153.464 17.073 153.771 17.073C154.078 17.073 154.446 17.0883 154.875 17.119C154.66 18.821 154.553 21.6577 154.553 25.629ZM162.616 31.701C162.83 29.907 162.938 27.4767 162.938 24.41C162.938 21.328 162.807 19.051 162.547 17.579C163.758 17.1497 165.176 16.935 166.802 16.935C168.442 16.935 169.646 17.303 170.413 18.039C171.179 18.775 171.563 19.856 171.563 21.282C171.563 22.6927 171.072 23.766 170.091 24.502C171.731 25.146 172.552 26.319 172.552 28.021C172.552 30.9037 170.796 32.345 167.285 32.345C165.429 32.345 163.873 32.1303 162.616 31.701ZM165.997 23.444C166.334 23.674 166.848 23.789 167.538 23.789C168.243 23.789 168.757 23.5513 169.079 23.076C169.401 22.5853 169.562 21.9413 169.562 21.144C169.562 20.3467 169.339 19.6643 168.895 19.097C168.465 18.5297 167.745 18.246 166.733 18.246C166.165 18.246 165.537 18.384 164.847 18.66C164.724 19.902 164.663 21.7343 164.663 24.157C164.663 26.5797 164.724 28.6037 164.847 30.229C165.736 30.5817 166.556 30.758 167.308 30.758C169.47 30.758 170.551 29.8457 170.551 28.021C170.551 26.4723 169.838 25.537 168.412 25.215C167.998 25.2917 167.561 25.33 167.101 25.33C166.641 25.33 166.112 25.215 165.514 24.985C165.514 24.2797 165.675 23.766 165.997 23.444Z" fill="#F7B149"/>
<defs>
<linearGradient id="paint0_linear_25_11" x1="15.5" y1="35" x2="15" y2="31" gradientUnits="userSpaceOnUse">
<stop stop-color="#F7B149"/>
<stop offset="1" stop-color="white"/>
</linearGradient>
</defs>
</svg>
